HIERARCHY
ROOT Hips
{
  OFFSET 0 89.5177 0.535
  CHANNELS 6 Xposition Yposition Zposition Zrotation Xrotation Yrotation
  JOINT Spine
  {
    OFFSET 12.0259 -0.162855 1.69034e-005
    CHANNELS 3 Zrotation Xrotation Yrotation
    JOINT Spine1
    {
      OFFSET 15.3169 -0.0121922 0
      CHANNELS 3 Zrotation Xrotation Yrotation
      JOINT Spine2
      {
        OFFSET 15.3176 -0.0121908 0
        CHANNELS 3 Zrotation Xrotation Yrotation
        JOINT Neck
        {
          OFFSET 19.9142 1.56338 0
          CHANNELS 3 Zrotation Xrotation Yrotation
          JOINT Head
          {
            OFFSET 6.92651 0 0
            CHANNELS 3 Zrotation Xrotation Yrotation
            End Site
            {
              OFFSET 20.7666 0 0
            }
          }
          JOINT LeftShoulder
          {
            OFFSET -6.20654 0.708824 7.28219
            CHANNELS 3 Zrotation Xrotation Yrotation
            JOINT LeftArm
            {
              OFFSET 14.108 0 -1.52588e-005
              CHANNELS 3 Zrotation Xrotation Yrotation
              JOINT LeftForeArm
              {
                OFFSET 28.5802 0 0
                CHANNELS 3 Zrotation Xrotation Yrotation
                JOINT LeftHand
                {
                  OFFSET 27.092 0 0
                  CHANNELS 3 Zrotation Xrotation Yrotation
                  End Site
                  {
                    OFFSET 9.55928 -0.186424 0.145352
                  }
                }
              }
            }
          }
          JOINT RightShoulder
          {
            OFFSET -6.20654 0.708866 -7.28218
            CHANNELS 3 Zrotation Xrotation Yrotation
            JOINT RightArm
            {
              OFFSET 14.108 0 1.52588e-005
              CHANNELS 3 Zrotation Xrotation Yrotation
              JOINT RightForeArm
              {
                OFFSET 28.5802 0 0
                CHANNELS 3 Zrotation Xrotation Yrotation
                JOINT RightHand
                {
                  OFFSET 27.092 0 0
                  CHANNELS 3 Zrotation Xrotation Yrotation
                  End Site
                  {
                    OFFSET 9.55929 -0.186417 -0.145354
                  }
                }
              }
            }
          }
        }
      }
    }
  }
  JOINT LeftUpLeg
  {
    OFFSET 0.005 -0.535 8.837
    CHANNELS 3 Zrotation Xrotation Yrotation
    JOINT LeftLeg
    {
      OFFSET 39.9035 0 0
      CHANNELS 3 Zrotation Xrotation Yrotation
      JOINT LeftFoot
      {
        OFFSET 39.6689 0 0
        CHANNELS 3 Zrotation Xrotation Yrotation
        JOINT LeftToe
        {
          OFFSET 10.1624 13.6296 0
          CHANNELS 3 Zrotation Xrotation Yrotation
          End Site
          {
            OFFSET 8.38147 0 0
          }
        }
      }
    }
  }
  JOINT RightUpLeg
  {
    OFFSET 0.005 -0.535 -8.837
    CHANNELS 3 Zrotation Xrotation Yrotation
    JOINT RightLeg
    {
      OFFSET 39.9035 0 0
      CHANNELS 3 Zrotation Xrotation Yrotation
      JOINT RightFoot
      {
        OFFSET 39.6689 0 0
        CHANNELS 3 Zrotation Xrotation Yrotation
        JOINT RightToe
        {
          OFFSET 10.1624 13.6296 0
          CHANNELS 3 Zrotation Xrotation Yrotation
          End Site
          {
            OFFSET 8.38147 0 0
          }
        }
      }
    }
  }
}
MOTION
Frames:	11
Frame Time:	0.0333333
111.518 82.2825 -25.9997 -75.8227 -23.1399 -172.621 3.08558 1.90943 -2.4323 6.25437 3.68382 -4.96769 6.25437 3.68382 -4.9677 -8.30828e-012 -9.0191e-006 -5.27751e-005 9.91362 -1.53125 13.7951 -178.808 -9.56481 -82.859 -21.987 -45.8722 21.1214 -45.2339 -6.36111e-015 -6.36111e-015 -70.5816 -39.9578 -67.9081 -179.596 32.9593 89.2578 -136.974 28.5024 60.2759 -55.2606 -6.36111e-015 -6.36111e-015 -54.4635 25.0766 45.7313 -13.2384 15.0256 -165.834 -56.5139 0 6.36111e-015 21.4739 2.56236 -7.47013 90 0 -3.18055e-015 -10.4986 -26.9135 150.315 -43.3649 -3.18056e-015 -3.18056e-015 22.0749 -5.21742 13.7776 90 3.97569e-016 -1.59028e-015 
111.763 82.964 -26.5551 -76.2015 -22.9939 -172.721 2.93087 2.07482 -2.56333 5.95721 4.01414 -5.23423 5.95721 4.01414 -5.23424 -8.30669e-012 -9.0191e-006 -5.27751e-005 9.33227 -1.89261 14.3094 -178.754 -10.1138 -82.9404 -22.171 -44.9544 20.1584 -47.0363 3.18055e-015 4.77083e-015 -71.3443 -39.5552 -68.7089 -179.404 32.57 88.8923 -136.964 27.4066 59.6654 -55.5149 0 3.18055e-015 -55.1605 24.8019 46.108 -12.0777 15.5704 -166.584 -54.4737 6.36111e-015 -3.18055e-015 20.9081 2.35469 -6.99313 90 -7.95139e-016 3.18055e-015 -9.79208 -25.9897 150.835 -42.4026 3.18056e-015 -0 20.2944 -4.72365 13.2489 90 -3.97569e-016 1.59028e-015 
111.987 83.6856 -27.0529 -76.5359 -23.6166 -172.711 2.79079 2.0644 -2.64982 5.67936 3.99549 -5.40194 5.67936 3.99549 -5.40195 -8.30828e-012 -9.0191e-006 -5.27751e-005 8.55794 -3.20641 14.8159 -178.815 -10.1077 -83.2781 -20.6366 -44.2029 20.5205 -48.0946 6.36111e-015 -4.77083e-015 -71.9921 -39.5729 -69.6248 -178.904 32.5622 87.9652 -135.756 25.8309 59.4153 -56.1226 1.59028e-015 3.18055e-015 -55.3283 24.7605 46.2759 -10.9838 15.821 -167.339 -52.0927 9.54166e-015 -3.18055e-015 20.0418 2.54897 -6.8656 90 7.95139e-016 -9.54166e-015 -9.27941 -26.1353 151.222 -41.3059 4.77083e-015 -3.18056e-015 18.6875 -4.16053 12.1948 90 -7.95139e-016 -0 
112.129 84.0794 -27.3427 -77.0072 -24.4753 -172.767 2.69427 1.97118 -2.7451 5.48452 3.80926 -5.58444 5.48452 3.80926 -5.58445 -8.30828e-012 -9.0191e-006 -5.27751e-005 6.71426 -4.96297 15.5774 -178.839 -10.0627 -83.3828 -19.899 -44.1705 19.9154 -47.932 -2.78299e-015 -0 -72.2948 -40.523 -70.5286 -178.525 32.8399 87.2816 -134.63 25.2518 60.3231 -57.7608 -3.18055e-015 -9.54166e-015 -55.0757 25.1498 46.5014 -10.7306 15.9136 -167.762 -50.6393 0 -1.59028e-015 19.6184 2.9338 -6.61604 90 0 -1.27222e-014 -9.13808 -25.5081 151.946 -41.4899 0 -4.77083e-015 17.4438 -5.79604 14.7586 90 -1.98785e-016 -3.97569e-016 
112.159 84.1196 -27.309 -77.1521 -25.449 -172.727 2.67942 1.8071 -2.82287 5.44844 3.47847 -5.73104 5.44844 3.47847 -5.73105 -8.30589e-012 -9.0191e-006 -5.27751e-005 4.6215 -6.31167 16.0294 -178.887 -10.0112 -83.6225 -19.9597 -44.1836 18.2899 -46.7136 2.78299e-015 -3.18055e-015 -71.6509 -41.0864 -69.9365 -178.471 33.1233 87.2028 -135.414 25.5014 62.4105 -58.0455 -7.95139e-016 -3.18055e-015 -55.9886 24.5002 46.8566 -10.9239 15.429 -167.915 -50.2718 6.36111e-015 3.18055e-015 19.6074 3.18846 -6.55261 90 1.59028e-015 -9.54166e-015 -9.38568 -24.8403 153.063 -43.8821 0 1.59028e-015 18.0928 -6.22376 14.7359 90 -2.48481e-017 -1.98785e-016 
112.231 84.2751 -27.1164 -76.9282 -26.7268 -172.476 2.75664 1.55734 -2.85037 5.59019 2.97431 -5.77517 5.59019 2.97431 -5.77518 -8.30748e-012 -9.0191e-006 -5.27751e-005 3.17145 -6.88055 15.8522 -178.988 -9.93068 -84.1527 -19.2143 -44.8251 17.9775 -45.4895 7.95139e-016 -1.59028e-015 -71.6848 -40.658 -69.7652 -178.635 34.0045 87.5608 -139.348 26.3413 64.6455 -57.314 -7.95139e-016 3.18055e-015 -56.2088 24.2866 46.8932 -10.7307 14.4613 -168.184 -49.6358 -3.18055e-015 -3.18055e-015 19.2312 3.29686 -6.58801 90 0 6.36111e-015 -9.02122 -25.3088 153.608 -44.3638 -1.59028e-015 -1.59028e-015 18.4505 -4.1428 12.5179 90 -7.95139e-016 -7.95139e-016 
112.397 84.7697 -26.9273 -77.1177 -28.1667 -172.138 2.7802 1.4885 -2.96131 5.63621 2.83007 -5.99399 5.63621 2.83007 -5.994 -8.30748e-012 -9.0191e-006 -5.27751e-005 0.910765 -8.23677 16.3543 -179.158 -9.45228 -84.8853 -18.8225 -46.0527 19.1418 -44.5291 -7.95139e-016 3.18055e-015 -71.9135 -40.1451 -69.8571 -178.573 34.4174 87.4768 -141.565 26.499 66.399 -56.6363 7.15625e-015 -3.18055e-015 -56.9039 23.7751 47.0719 -10.3931 13.5733 -168.82 -48.0124 -6.36111e-015 3.18055e-015 18.0207 3.57875 -6.60908 90 -7.95139e-016 -6.36111e-015 -7.7787 -24.9927 154.398 -43.4467 4.77083e-015 -1.59028e-015 18.0389 -3.21541 11.4173 90 0 1.98785e-016 
112.776 85.899 -26.8859 -76.9268 -30.1926 -171.943 2.8445 1.399 -2.99424 5.76055 2.64623 -6.05654 5.76055 2.64623 -6.05655 -8.30271e-012 -9.0191e-006 -5.27751e-005 -3.98834 -10.9969 16.9314 -179.222 -9.14033 -85.1163 -19.4115 -46.2008 20.2569 -44.0883 -2.78299e-015 3.18055e-015 -71.7561 -40.1379 -69.6902 -178.776 34.5605 87.8429 -142.253 26.2194 67.2564 -54.2637 7.95139e-016 -0 -58.1997 22.1782 46.3843 -8.92793 12.7728 -169.277 -44.466 6.36111e-015 -0 15.7399 4.40677 -6.48447 90 1.59028e-015 -0 -5.07221 -26.7506 155.48 -39.416 -7.95139e-016 1.59028e-015 15.2324 -3.69553 12.5672 90 -3.97569e-016 1.98785e-016 
113.135 87.8263 -26.9692 -77.3033 -32.0808 -171.95 2.72426 1.40207 -3.0942 5.5225 2.65391 -6.25397 5.52251 2.65391 -6.25398 -8.31066e-012 -9.0191e-006 -5.27751e-005 -8.55863 -14.8918 17.1373 -179.287 -8.84166 -85.3689 -19.5998 -44.1029 22.0344 -44.6655 -5.1684e-015 1.59028e-015 -70.9838 -40.5575 -68.826 -179.353 34.0112 88.8427 -141.741 25.7476 67.686 -48.7643 -4.77083e-015 -3.18055e-015 -59.6628 20.8553 46.1893 -7.21014 12.485 -170.008 -39.1653 3.18055e-015 4.77083e-015 10.9971 5.44757 -6.09665 90 7.95139e-016 6.36111e-015 -2.66622 -29.4643 156.634 -33.4301 7.95139e-016 -0 9.36605 -4.30548 13.9236 90 0 -3.97569e-016 
113.321 90.39 -27.1623 -78.4035 -32.7548 -172.236 2.45388 1.63124 -3.28171 4.99999 3.11825 -6.63386 4.99999 3.11825 -6.63387 -8.30748e-012 -9.0191e-006 -5.27751e-005 -11.985 -18.7321 16.9634 -179.257 -8.30502 -84.869 -19.5712 -41.1408 22.9087 -45.431 7.15625e-015 1.59028e-015 -69.2352 -41.2004 -66.7191 179.05 33.4104 91.7246 -143.461 27.115 68.5872 -40.3668 0 -0 -58.9742 19.8201 43.4987 -5.70422 13.2678 -170.738 -33.0057 -3.18055e-015 -0 3.87006 6.30666 -7.55001 90 3.18055e-015 -2.22639e-014 -1.34662 -30.3643 157.804 -27.5818 0 1.59028e-015 0.563963 -4.54524 14.4378 90 6.21202e-018 -0 
113.336 93.098 -27.4014 -79.8006 -32.6822 -172.579 2.23187 1.91846 -3.56127 4.58231 3.69348 -7.2001 4.58231 3.69348 -7.20011 -8.30907e-012 -9.0191e-006 -5.27751e-005 -14.8297 -21.5752 16.7506 -179.157 -8.55358 -84.3487 -19.5347 -38.8999 23.8534 -46.1563 0 -4.77083e-015 -68.6039 -41.1172 -65.7863 177.446 32.0881 94.7997 -148.374 29.3185 71.7449 -30.8968 6.36111e-015 3.18055e-015 -58.4228 18.0961 40.1153 -4.4366 14.4 -171.594 -26.5834 6.36111e-015 1.59028e-015 -4.99873 7.09488 -9.79598 90 0 -3.18055e-015 -1.17041 -29.7377 158.565 -22.6265 1.59028e-015 -3.18056e-015 -9.90696 -4.60677 14.2191 90 -4.96962e-017 -0 
